<?xml version="1.0" standalone="no"?>
<!DOCTYPE svg PUBLIC "-//W3C//DTD SVG 20010904//EN"
 "http://www.w3.org/TR/2001/REC-SVG-20010904/DTD/svg10.dtd">
<svg version="1.0" xmlns="http://www.w3.org/2000/svg"
 width="300.000000pt" height="168.000000pt" viewBox="0 0 300.000000 168.000000"
 preserveAspectRatio="xMidYMid meet">

<g transform="translate(0.000000,168.000000) scale(0.100000,-0.100000)"
fill="#000000" stroke="none">
<path d="M0 840 l0 -840 1500 0 1500 0 0 840 0 840 -1500 0 -1500 0 0 -840z
m825 390 c-82 -113 -85 -140 -9 -71 31 29 58 50 60 48 2 -2 -4 -58 -13 -126
l-17 -122 -61 -43 c-33 -23 -65 -46 -72 -50 -7 -3 1 32 18 81 16 48 29 88 29
90 0 2 -9 -1 -19 -7 -26 -13 -31 -13 -31 5 0 8 -3 15 -7 15 -8 -1 -276 -360
-269 -360 2 0 25 9 51 21 25 11 48 19 50 17 5 -4 -439 -347 -443 -343 -2 2
136 173 306 382 170 208 308 380 306 382 -1 2 -17 -2 -35 -8 -18 -6 -34 -10
-35 -8 -2 2 26 23 63 48 37 24 94 65 128 91 33 26 61 48 63 48 1 0 -27 -40
-63 -90z m1483 -75 c3 -2 -12 1 -33 6 -20 6 -38 9 -40 7 -2 -2 127 -165 287
-363 340 -421 357 -444 338 -429 -56 42 -447 348 -455 356 -5 5 16 -2 48 -16
32 -14 54 -20 50 -13 -50 82 -183 247 -216 269 -23 15 -43 24 -45 20 -1 -4 7
-34 18 -67 11 -32 18 -60 16 -63 -9 -8 -117 92 -121 113 -3 11 -14 73 -24 137
-15 88 -26 126 -44 150 -13 18 -27 38 -31 45 -5 9 237 -137 252 -152z m-207
-2 c6 -33 6 -33 -32 -33 -35 0 -69 -20 -69 -41 0 -5 10 -19 21 -30 17 -17 29
-20 60 -16 22 3 39 2 39 -3 0 -4 3 -22 6 -39 l7 -31 -64 0 c-103 0 -168 58
-156 137 11 62 59 94 137 90 41 -2 45 -4 51 -34z m-1041 2 c0 -22 -4 -25 -40
-25 -29 0 -40 -4 -40 -15 0 -10 11 -15 35 -15 31 0 35 -3 35 -25 0 -22 -4 -25
-40 -25 -29 0 -40 -4 -40 -15 0 -11 11 -15 41 -15 33 0 40 -3 35 -16 -3 -9 -6
-22 -6 -30 0 -11 -18 -14 -80 -14 -73 0 -80 2 -80 20 0 23 20 170 25 188 3 8
28 12 80 12 73 0 75 -1 75 -25z m208 0 c-8 -18 -19 -25 -40 -25 -28 0 -28 -1
-28 -62 0 -98 -5 -108 -53 -108 l-40 0 7 85 c7 81 6 85 -13 85 -16 0 -21 6
-21 25 0 25 0 25 100 25 l100 0 -12 -25z m149 -60 c41 -146 41 -135 -11 -135
-34 0 -46 4 -46 15 0 9 -9 15 -25 15 -14 0 -28 -7 -31 -15 -6 -16 -84 -22 -84
-7 0 8 76 187 87 205 2 4 23 7 46 5 l41 -3 23 -80z m133 5 l0 -80 35 0 c32 0
35 -2 35 -30 l0 -31 -77 3 -78 3 -3 108 -3 107 46 0 45 0 0 -80z m164 58 c3
-13 6 -49 6 -80 l0 -58 40 0 c38 0 40 -2 40 -30 l0 -30 -80 0 -80 0 0 33 c0
19 -3 68 -6 110 l-7 77 40 0 c34 0 42 -4 47 -22z m180 -30 c3 -29 8 -79 12
-110 l6 -58 -45 0 -46 0 -5 55 c-3 30 -9 80 -12 110 l-5 55 44 0 45 0 6 -52z"/>
<path d="M2200 1102 c0 -5 7 -15 15 -22 8 -7 15 -8 15 -2 0 5 -7 15 -15 22 -8
7 -15 8 -15 2z"/>
<path d="M1330 1060 c0 -5 5 -10 11 -10 5 0 7 5 4 10 -3 6 -8 10 -11 10 -2 0
-4 -4 -4 -10z"/>
</g>
</svg>
